Coordinates
version=1
nRows=41
nColumns=38
inDegrees=no

Units are S.I. units (second, meters, Newtons, ...)
If the header above contains a line with 'inDegrees', this indicates whether rotational values are in degrees (yes) or radians (no).

endheader
time	pelvis_tilt	pelvis_list	pelvis_rotation	pelvis_tx	pelvis_ty	pelvis_tz	hip_flexion_r	hip_adduction_r	hip_rotation_r	knee_angle_r	ankle_angle_r	subtalar_angle_r	mtp_angle_r	hip_flexion_l	hip_adduction_l	hip_rotation_l	knee_angle_l	ankle_angle_l	subtalar_angle_l	mtp_angle_l	lumbar_extension	lumbar_bending	lumbar_rotation	arm_flex_r	arm_add_r	arm_rot_r	elbow_flex_r	pro_sup_r	wrist_flex_r	wrist_dev_r	arm_flex_l	arm_add_l	arm_rot_l	elbow_flex_l	pro_sup_l	wrist_flex_l	wrist_dev_l
45	-1.30575	1.51738	2.87814	0.618889	0.516676	0.801641	0.726943	-0.222261	0.0364225	1.42505	0.522369	0	0	0.696079	0.0662308	-0.122375	1.4181	0.523599	0	0	-0.402497	0.184657	0.0826323	0.314038	-0.479096	0.343226	0.288124	0.958741	0	0	-0.0600544	-0.245214	0.456058	0.864253	1.02643	0	0
45.01	-1.28162	1.51661	2.85431	0.619521	0.517021	0.803814	0.722387	-0.219574	0.0363241	1.41588	0.520667	0	0	0.692568	0.0654104	-0.122436	1.40952	0.523599	0	0	-0.397558	0.182394	0.0799534	0.308883	-0.476085	0.339042	0.28989	0.962735	0	0	-0.063809	-0.247083	0.456605	0.862396	1.02113	0	0
45.02	-1.25811	1.5157	2.83084	0.620209	0.517365	0.806114	0.717908	-0.21699	0.0362948	1.40621	0.518338	0	0	0.688802	0.0648517	-0.12251	1.40037	0.523599	0	0	-0.392475	0.179689	0.0774396	0.303915	-0.473232	0.335974	0.291035	0.966395	0	0	-0.0675289	-0.248853	0.457532	0.860148	1.01595	0	0
45.03	-1.23418	1.51488	2.80688	0.620915	0.517717	0.808548	0.713312	-0.214457	0.0358464	1.39635	0.515591	0	0	0.684845	0.0643036	-0.122428	1.39072	0.523599	0	0	-0.387216	0.176924	0.0749034	0.299466	-0.470403	0.334054	0.29135	0.970468	0	0	-0.0712724	-0.250472	0.45897	0.857085	1.01149	0	0
45.04	-1.21079	1.5144	2.78376	0.621578	0.518068	0.811145	0.708118	-0.212098	0.034576	1.38594	0.512519	0	0	0.680484	0.0637408	-0.121802	1.38048	0.523599	0	0	-0.382031	0.174492	0.0721216	0.295485	-0.467554	0.331963	0.291279	0.974997	0	0	-0.0748749	-0.25196	0.461071	0.853262	1.00724	0	0
45.05	-1.18683	1.51421	2.75989	0.622211	0.518419	0.813884	0.702677	-0.209846	0.0328001	1.375	0.508784	0	0	0.67569	0.0630371	-0.120934	1.36962	0.523599	0	0	-0.376763	0.172326	0.0685547	0.292163	-0.466658	0.34737	0.293154	0.955277	0	0	-0.0798808	-0.252003	0.457686	0.849316	1.01812	0	0
45.06	-1.1596	1.51422	2.73295	0.622863	0.518817	0.816773	0.697145	-0.207876	0.0302693	1.36331	0.504194	0	0	0.670549	0.0622197	-0.119702	1.3581	0.523599	0	0	-0.371228	0.170238	0.0655798	0.28992	-0.462013	0.33128	0.288691	0.986148	0	0	-0.0835946	-0.25451	0.464714	0.848115	0.99119	0	0
45.07	-1.13096	1.51477	2.70451	0.623479	0.519268	0.819871	0.690756	-0.205809	0.0267487	1.35072	0.49944	0	0	0.664742	0.0609773	-0.118164	1.3459	0.523599	0	0	-0.365864	0.168857	0.0621425	0.287474	-0.459407	0.328904	0.286901	0.998937	0	0	-0.0886161	-0.253635	0.461444	0.843388	1.0049	0	0
45.08	-1.09499	1.51521	2.6685	0.624108	0.519749	0.823074	0.684386	-0.203886	0.0228884	1.33766	0.495029	0	0	0.659126	0.0596145	-0.116601	1.33324	0.523599	0	0	-0.359976	0.167461	0.059564	0.283964	-0.457424	0.326742	0.286228	1.00573	0	0	-0.0931064	-0.253891	0.463309	0.839968	1.00201	0	0
45.09	-1.06534	1.51622	2.63887	0.624709	0.520284	0.826496	0.676815	-0.202117	0.0181788	1.32368	0.489805	0	0	0.652267	0.0580427	-0.114767	1.31977	0.523599	0	0	-0.354499	0.166507	0.0579426	0.27929	-0.45582	0.322003	0.286313	1.01551	0	0	-0.0965216	-0.253839	0.467262	0.835507	0.997319	0	0
45.1	-1.02598	1.51694	2.59906	0.625322	0.520784	0.82996	0.669974	-0.200398	0.0134363	1.30937	0.483836	0	0	0.645805	0.056195	-0.113276	1.30588	0.523599	0	0	-0.348468	0.165418	0.0567808	0.274577	-0.454286	0.318027	0.286656	1.02359	0	0	-0.100126	-0.253532	0.470477	0.831394	0.994385	0	0
45.11	-0.98275	1.51751	2.55502	0.625946	0.521256	0.833547	0.662868	-0.198763	0.00841652	1.29423	0.477689	0	0	0.639151	0.0541472	-0.112085	1.29135	0.523599	0	0	-0.342278	0.164199	0.0561477	0.269828	-0.452886	0.315392	0.287199	1.03059	0	0	-0.103654	-0.253056	0.473369	0.827502	0.992373	0	0
45.12	-0.931804	1.51767	2.50303	0.626582	0.521718	0.83723	0.656007	-0.19741	0.00309302	1.2783	0.471638	0	0	0.632776	0.0520663	-0.111064	1.27624	0.523211	0	0	-0.335361	0.162899	0.0549198	0.26458	-0.454279	0.339515	0.292196	0.996683	0	0	-0.108542	-0.251818	0.472197	0.824139	0.99815	0	0
45.13	-0.882391	1.51747	2.45225	0.627257	0.522227	0.841096	0.648887	-0.196437	-0.00262613	1.26157	0.465447	0	0	0.625862	0.0500412	-0.11045	1.25998	0.516663	0	0	-0.328424	0.161007	0.0548314	0.259576	-0.45242	0.337565	0.293505	1.00189	0	0	-0.112728	-0.251003	0.473239	0.821173	0.996202	0	0
45.14	-0.841061	1.5171	2.40925	0.627949	0.522783	0.845147	0.641289	-0.195839	-0.00851762	1.2445	0.45899	0	0	0.617924	0.0482067	-0.110309	1.24234	0.510053	0	0	-0.321794	0.158637	0.0549581	0.254342	-0.450327	0.335123	0.295249	1.00816	0	0	-0.117189	-0.249997	0.473146	0.818471	0.994785	0	0
45.15	-0.802879	1.51642	2.36903	0.628669	0.523386	0.849311	0.633815	-0.195458	-0.0142478	1.2272	0.451289	0	0	0.60957	0.0464771	-0.110578	1.22397	0.502835	0	0	-0.314897	0.155884	0.0556842	0.248537	-0.448193	0.332371	0.297087	1.01453	0	0	-0.121089	-0.249301	0.474534	0.815882	0.992917	0	0
45.16	-0.763262	1.51542	2.32696	0.629414	0.523986	0.853564	0.626601	-0.194904	-0.0196861	1.20957	0.442685	0	0	0.601143	0.0446495	-0.111228	1.20498	0.495024	0	0	-0.307662	0.153003	0.0572397	0.242328	-0.44594	0.328854	0.298813	1.0198	0	0	-0.124733	-0.248605	0.476053	0.813363	0.991023	0	0
45.17	-0.721874	1.51443	2.28293	0.630165	0.524592	0.857912	0.619117	-0.19391	-0.0251463	1.19151	0.433741	0	0	0.592491	0.0425128	-0.112017	1.18549	0.486833	0	0	-0.300391	0.150378	0.0589304	0.236197	-0.443188	0.323952	0.300273	1.02459	0	0	-0.128945	-0.247578	0.475532	0.812047	0.989575	0	0
45.18	-0.68321	1.51319	2.2417	0.630952	0.525241	0.862292	0.61144	-0.192819	-0.0302679	1.17274	0.424465	0	0	0.583578	0.0404693	-0.112988	1.1655	0.478513	0	0	-0.292885	0.147528	0.0602667	0.230358	-0.439814	0.31963	0.301316	1.02932	0	0	-0.133747	-0.24689	0.473972	0.811792	0.988	0	0
45.19	-0.648135	1.51198	2.20417	0.631739	0.525929	0.866745	0.603108	-0.191868	-0.035865	1.15352	0.415368	0	0	0.57408	0.0385352	-0.114064	1.14481	0.47003	0	0	-0.285298	0.144574	0.0616181	0.224407	-0.436169	0.315886	0.302425	1.0342	0	0	-0.138597	-0.246555	0.472551	0.811941	0.986225	0	0
45.2	-0.612926	1.51127	2.16637	0.632541	0.526637	0.871345	0.59343	-0.190279	-0.0418898	1.13281	0.405868	0	0	0.563589	0.0360708	-0.115273	1.12314	0.461064	0	0	-0.278103	0.14191	0.063468	0.218294	-0.432537	0.312315	0.303812	1.03999	0	0	-0.143077	-0.246039	0.470868	0.811761	0.984284	0	0
45.21	-0.568128	1.51049	2.11915	0.633352	0.527379	0.875984	0.583195	-0.188031	-0.0484582	1.11074	0.396487	0	0	0.55316	0.0330289	-0.116366	1.10095	0.452101	0	0	-0.270296	0.139743	0.0657649	0.211162	-0.42866	0.307499	0.305651	1.04413	0	0	-0.147217	-0.245568	0.469548	0.811225	0.983232	0	0
45.22	-0.52223	1.50973	2.07122	0.634172	0.528188	0.880645	0.572406	-0.185681	-0.0555745	1.08826	0.387221	0	0	0.542356	0.0298583	-0.117416	1.07832	0.443079	0	0	-0.262362	0.137667	0.0676727	0.203371	-0.424364	0.300769	0.30798	1.04765	0	0	-0.151576	-0.245446	0.467883	0.81134	0.98233	0	0
45.23	-0.486205	1.50872	2.03373	0.635019	0.52906	0.885239	0.561414	-0.183655	-0.0623185	1.06588	0.378143	0	0	0.531216	0.0273548	-0.118625	1.0554	0.433924	0	0	-0.254036	0.134901	0.0688126	0.195234	-0.41907	0.291374	0.309938	1.05156	0	0	-0.156354	-0.246197	0.46639	0.812699	0.981395	0	0
45.24	-0.462383	1.50752	2.00897	0.635882	0.52999	0.889735	0.550464	-0.182033	-0.0684569	1.04386	0.368959	0	0	0.519706	0.0255796	-0.120141	1.0322	0.424587	0	0	-0.245341	0.131273	0.0692439	0.187235	-0.413066	0.281962	0.310866	1.05567	0	0	-0.16147	-0.247985	0.465913	0.815031	0.980696	0	0
45.25	-0.446491	1.50641	1.99266	0.636744	0.53098	0.894147	0.539078	-0.180588	-0.0742425	1.02203	0.359645	0	0	0.507731	0.0242234	-0.1218	1.00873	0.415099	0	0	-0.236479	0.12716	0.0689289	0.17956	-0.406702	0.273952	0.310901	1.0599	0	0	-0.166701	-0.250773	0.467352	0.8174	0.982269	0	0
45.26	-0.424136	1.5059	1.97023	0.637603	0.531999	0.89862	0.526428	-0.178396	-0.0806317	0.9992	0.3503	0	0	0.495069	0.0221013	-0.123522	0.984724	0.40555	0	0	-0.228147	0.123874	0.0685292	0.172338	-0.400599	0.267288	0.310471	1.06355	0	0	-0.171482	-0.253063	0.467542	0.818733	0.984393	0	0
45.27	-0.396428	1.50632	1.94226	0.638482	0.533006	0.903209	0.512233	-0.175021	-0.0868437	0.974937	0.340485	0	0	0.481195	0.0190015	-0.125695	0.959965	0.395941	0	0	-0.221059	0.121304	0.0691949	0.166166	-0.392947	0.245862	0.306622	1.09136	0	0	-0.175065	-0.254895	0.467245	0.819644	0.9871	0	0
45.28	-0.367457	1.50656	1.91339	0.639346	0.534023	0.907702	0.497944	-0.171288	-0.0926345	0.950221	0.330939	0	0	0.467404	0.0159688	-0.12798	0.935027	0.386204	0	0	-0.213649	0.118869	0.0690153	0.159325	-0.38773	0.242977	0.306	1.09353	0	0	-0.17891	-0.256922	0.466994	0.820501	0.986781	0	0
45.29	-0.33946	1.50687	1.88609	0.640201	0.535134	0.912128	0.482962	-0.16769	-0.0989278	0.92505	0.321662	0	0	0.453233	0.0130668	-0.130368	0.909778	0.376414	0	0	-0.206047	0.116401	0.0683796	0.151909	-0.382551	0.239235	0.305493	1.09579	0	0	-0.182655	-0.259279	0.467408	0.820766	0.986143	0	0
45.3	-0.311532	1.50735	1.8588	0.641088	0.536227	0.916527	0.467517	-0.163651	-0.104852	0.898975	0.312243	0	0	0.438617	0.009874	-0.133453	0.88411	0.366517	0	0	-0.198709	0.113892	0.0680721	0.144079	-0.377634	0.235205	0.305421	1.09817	0	0	-0.185797	-0.26165	0.468093	0.820832	0.985219	0	0
45.31	-0.283268	1.50813	1.83117	0.64198	0.537303	0.920901	0.451174	-0.159148	-0.110737	0.872012	0.303236	0	0	0.423436	0.0063669	-0.137269	0.858002	0.356473	0	0	-0.19179	0.111439	0.067859	0.136234	-0.372713	0.23102	0.305474	1.10073	0	0	-0.18859	-0.263943	0.46851	0.820928	0.983487	0	0
45.32	-0.26137	1.50871	1.80997	0.642867	0.538343	0.925173	0.434895	-0.154806	-0.115979	0.844577	0.293909	0	0	0.408219	0.00332874	-0.141589	0.831569	0.346195	0	0	-0.184966	0.108448	0.0676177	0.128559	-0.367761	0.227476	0.305196	1.10289	0	0	-0.190911	-0.266237	0.468636	0.820156	0.980944	0	0
45.33	-0.249899	1.50896	1.79928	0.643769	0.539387	0.929287	0.41886	-0.151228	-0.121071	0.817286	0.284904	0	0	0.393033	0.00100881	-0.146635	0.804823	0.335883	0	0	-0.17796	0.104528	0.0670949	0.121227	-0.36262	0.22524	0.304297	1.10483	0	0	-0.193366	-0.268354	0.466892	0.819337	0.978204	0	0
45.34	-0.241406	1.50903	1.79211	0.644668	0.540499	0.933222	0.402965	-0.148004	-0.126612	0.790429	0.276103	0	0	0.377871	-0.00109768	-0.152082	0.777903	0.325626	0	0	-0.170525	0.100219	0.0657723	0.114096	-0.357389	0.224179	0.303038	1.10634	0	0	-0.196278	-0.270739	0.464982	0.818626	0.977494	0	0
45.35	-0.232621	1.50873	1.78583	0.645518	0.541717	0.936937	0.387336	-0.145056	-0.132907	0.764012	0.267457	0	0	0.363081	-0.00297376	-0.157378	0.750985	0.315536	0	0	-0.162262	0.0957291	0.0630832	0.106637	-0.351864	0.223605	0.301728	1.10656	0	0	-0.199722	-0.273389	0.463137	0.817814	0.977274	0	0
45.36	-0.218664	1.5075	1.77529	0.646304	0.542938	0.940415	0.372731	-0.142236	-0.140259	0.73767	0.258515	0	0	0.349598	-0.00472166	-0.162303	0.724279	0.305523	0	0	-0.152802	0.0913809	0.0593538	0.0987827	-0.346272	0.222628	0.300734	1.10557	0	0	-0.202978	-0.275834	0.461615	0.815287	0.977042	0	0
45.37	-0.204523	1.50609	1.76446	0.647073	0.544081	0.94376	0.358429	-0.139351	-0.147478	0.711549	0.249779	0	0	0.336409	-0.00640743	-0.167641	0.697538	0.295429	0	0	-0.143456	0.0870733	0.0558176	0.0907438	-0.340804	0.220707	0.300175	1.10402	0	0	-0.205437	-0.277743	0.460293	0.810945	0.976711	0	0
45.38	-0.195044	1.50485	1.75808	0.647842	0.54517	0.946965	0.344138	-0.136293	-0.153817	0.685553	0.240934	0	0	0.323125	-0.00770444	-0.173059	0.670983	0.285409	0	0	-0.134614	0.0824329	0.0525618	0.0826425	-0.335622	0.218739	0.299927	1.10314	0	0	-0.207305	-0.27946	0.459055	0.806452	0.975786	0	0
45.39	-0.188213	1.50336	1.75474	0.648659	0.546312	0.949946	0.330009	-0.132996	-0.159421	0.659389	0.232945	0	0	0.310444	-0.00874584	-0.178198	0.645123	0.275614	0	0	-0.125495	0.0773301	0.0489994	0.0742932	-0.330145	0.216541	0.299767	1.10205	0	0	-0.209177	-0.281368	0.457829	0.802144	0.974349	0	0
45.4	-0.180789	1.50187	1.75209	0.649463	0.547583	0.952715	0.315244	-0.129509	-0.165205	0.632531	0.225639	0	0	0.298193	-0.00953466	-0.18205	0.620126	0.266128	0	0	-0.116225	0.0720831	0.0443878	0.0658542	-0.323578	0.209354	0.298697	1.10874	0	0	-0.211067	-0.283359	0.456318	0.796628	0.974547	0	0
